<svg xmlns="http://www.w3.org/2000/svg" width="360" height="68" viewBox="0 0 360 68"><style>.st0{fill:#fff}.st1{fill:#2e2e2e}.st3{fill-rule:evenodd;clip-rule:evenodd;fill:#fff}</style><path class="st0" d="M221.1 20v13.9c-.5-1.2-1.1-2.3-1.9-3.2-1.9-2.1-4.4-3.1-7.6-3.1-2.1 0-4 .5-5.7 1.5-1.3.8-2.3 1.8-3.2 3l1.4-4.2h-9.6l-2 7.3-2-7.3h-9.6l.9 2.7c-.2-.3-.5-.6-.8-.8-1.7-1.5-4.1-2.2-6.9-2.2-1.8 0-3.5.3-5 1-1 .4-1.9 1-2.6 1.7v-1.9l-1.4-.4c-.7-.2-1.4-.3-2.2-.3-.7 0-1.6.1-2.5.5v-.1h-8.7v7c-.3-2.1-1.2-3.8-2.7-5.1-1.7-1.5-4.1-2.2-6.9-2.2-1.8 0-3.5.3-5 1-1.6.7-2.8 1.6-3.7 2.9-.9 1.3-1.4 2.7-1.4 4.2v2h2.3c-1.5 1.3-2.4 3-2.6 5.1h-9.2V21.4h-9.3V51h20.5v-2.2l.4.4c1.6 1.4 3.6 2.1 6 2.1.9 0 1.8-.1 2.6-.3h18.1V37.1c.2-.2.7-.5 1.8-.5.4 0 .9 0 1.4.1v1h2.3c-1.8 1.4-2.7 3.5-2.7 6 0 2.2.9 4.1 2.5 5.6 1.6 1.4 3.6 2.1 6 2.1 1.4 0 2.7-.3 3.8-.8l.2.5h8.4v-2.8l-.2-.4c-.2-.4-.5-1.2-.5-3.2v-8.1l4.9 14.5h7.7l4.4-13c0 .5-.1.9-.1 1.4v.5c0 3.4 1.1 6.2 3.2 8.3 2.1 2.1 4.9 3.1 8.2 3.1 1.9 0 3.6-.4 5.2-1.1 1.6-.7 2.8-1.8 3.8-3.1V51h9.1V20h-9.1zm-1.4 23.1h1.4v1.5l-1.4-1.5zM8 68c-4.4 0-8-3.6-8-8V28c0-4.4 3.6-8 8-8h10V8c0-4.4 3.6-8 8-8h62c4.4 0 8 3.6 8 8v32c0 4.4-3.6 8-8 8H78v12c0 4.4-3.6 8-8 8H8zM347.7 50.5v-22h5v.7c1.1-.7 2.4-1 3.9-1 .8 0 1.5.1 2 .4l.9.4-.1 4.7-1.7-.3c-.4-.1-.8-.1-1.2-.1-1 0-1.7.3-2.4.8-.6.5-1.1 1.2-1.4 2.2v14.3h-5z"/><path class="st1" d="M356.7 29.6c-2.5 0-4.2 1.1-5.4 3.4v-3h-2.1v19h2.1V35.9c.4-1.4 1-2.5 1.9-3.2.9-.7 2-1.1 3.3-1.1.5 0 1 0 1.4.1l.1-1.9c-.3-.1-.7-.2-1.3-.2z"/><path class="st0" d="M313.5 50.5v-14c0-1.3-.3-2.3-.7-2.8-.4-.5-1.2-.7-2.3-.7-1 0-1.8.3-2.5.9-.7.6-1.3 1.4-1.7 2.4v14.3h-5.1v-30h5.1v9c.1-.1.3-.2.4-.2 1.3-.8 2.7-1.1 4.3-1.1 2.5 0 4.4.8 5.7 2.2 1.2 1.4 1.9 3.5 1.9 6.1v14h-5.1z"/><path class="st1" d="M311.1 29.6c-1.3 0-2.5.3-3.5.9-1.1.6-2 1.5-2.7 2.6V22h-2.1v27h2.1V36c.5-1.4 1.2-2.5 2.2-3.3 1-.8 2.2-1.2 3.5-1.2 1.6 0 2.7.4 3.4 1.2.7.8 1.1 2.1 1.1 3.8V49h2.1V36.5c0-2.3-.5-4-1.5-5.2-1.1-1.1-2.6-1.7-4.6-1.7z"/><path class="st0" d="M323.9 27.4c-1.1 0-1.8-.5-2.1-.9-.5-.5-.8-1.3-.8-2 0-.8.3-1.5.8-2 .4-.4 1.1-.9 2.1-.9 1.1 0 1.8.5 2.1.9.5.6.8 1.3.8 2 0 .8-.3 1.5-.8 2.1-.4.3-1.1.8-2.1.8z"/><path class="st1" d="M323.9 23.1c-.4 0-.8.1-1.1.4-.3.3-.4.6-.4 1s.1.7.4 1c.3.3.6.4 1.1.4.4 0 .8-.1 1.1-.4.3-.3.4-.6.4-1s-.1-.7-.4-1c-.3-.3-.7-.4-1.1-.4z"/><path class="st0" d="M291 50.9c-2.5 0-4.7-.6-6.3-1.9-1.7-1.3-2.6-3.2-2.6-5.3v-1.5h5l.1 1.4c.1.8.3 1.3.9 1.8.7.5 1.7.7 2.9.7 1.1 0 2-.2 2.7-.7.6-.5.7-.9.7-1.2 0-.6-.2-1-.7-1.3-.5-.3-1.4-.8-3.2-1.2-1.8-.4-3.2-.8-4.3-1.4-1.2-.6-2.1-1.3-2.6-2.2-.6-.9-.9-2-.9-3.3 0-2 .9-3.6 2.5-4.9 1.5-1.2 3.4-1.8 5.7-1.8 2.5 0 4.5.6 6.1 1.9 1.6 1.3 2.5 3.1 2.5 5.3v1.5h-5.1v-1.5c0-.7-.3-1.1-.8-1.6-.7-.5-1.5-.8-2.6-.8s-1.9.2-2.4.6c-.5.3-.6.7-.6 1.2 0 .6.2.8.4 1 .3.2 1.1.7 3.3 1.2 2 .5 3.5 1 4.5 1.5 1.1.6 2 1.4 2.6 2.3.6.9.9 2.1.9 3.3 0 2.1-.9 3.8-2.5 5.1-1.7 1.2-3.7 1.8-6.2 1.8z"/><path class="st1" d="M295.3 39.8c-.9-.5-2.3-1-4.2-1.4-1.8-.4-3.1-.9-3.8-1.4-.7-.5-1-1.3-1-2.2 0-1 .4-1.8 1.3-2.4.8-.6 1.9-.9 3.3-.9s2.6.4 3.5 1.1c.9.7 1.4 1.7 1.4 2.8h2.1c0-1.7-.6-3.1-1.9-4.1-1.3-1-3-1.6-5.1-1.6-2 0-3.6.5-4.8 1.5-1.3 1-1.9 2.2-1.9 3.7 0 .9.2 1.8.7 2.4.5.7 1.1 1.2 2.1 1.7.9.5 2.2.9 3.9 1.2 1.7.4 2.9.9 3.8 1.5.8.6 1.3 1.5 1.3 2.5s-.5 1.8-1.4 2.4c-.9.6-2.1 1-3.5 1-1.6 0-2.8-.3-3.8-1s-1.5-1.6-1.6-2.9h-2.1c0 1.6.7 3 2.1 4.1 1.4 1.1 3.2 1.6 5.4 1.6 2.1 0 3.8-.5 5.1-1.4 1.3-1 1.9-2.2 1.9-3.8 0-1-.2-1.8-.7-2.5-.5-.8-1.1-1.4-2.1-1.9z"/><path class="st0" d="M251.1 50.9c-2.2 0-4.2-.6-5.9-1.7-1.7-1.1-3-2.7-3.9-4.7-.9-1.9-1.3-4.1-1.3-6.6v-3.3c0-2.5.4-4.7 1.3-6.7s2.3-3.6 4-4.7c1.7-1.1 3.7-1.7 6-1.7 3.1 0 5.7.9 7.5 2.6 1.9 1.7 2.9 4.1 3.2 7.1l.2 1.6H257l-.2-1.3c-.4-3.6-2.2-5.2-5.6-5.2-1.9 0-3.3.7-4.4 2-1.2 1.5-1.7 3.6-1.7 6.3v3.1c0 2.6.6 4.7 1.7 6.2 1.1 1.4 2.4 2 4.2 2 1.9 0 3.2-.4 4.1-1.2.9-.8 1.4-2.2 1.7-4l.2-1.3h5.2l-.2 1.7c-.3 3.1-1.5 5.5-3.4 7.2-1.9 1.7-4.4 2.6-7.5 2.6z"/><path class="st1" d="M245.7 27.5c1.4-1.7 3.2-2.6 5.5-2.6 4.2 0 6.5 2.2 7.1 6.5h2.2c-.3-2.6-1.2-4.7-2.8-6.1-1.6-1.5-3.8-2.2-6.5-2.2-1.9 0-3.7.5-5.2 1.4-1.5 1-2.6 2.3-3.4 4.1-.8 1.8-1.2 3.8-1.2 6v3.3c0 2.2.4 4.2 1.2 6s1.9 3.1 3.4 4c1.5.9 3.1 1.4 5 1.4 2.7 0 4.9-.7 6.5-2.1 1.6-1.4 2.6-3.5 2.9-6.2h-2.2c-.3 2.2-1 3.8-2.1 4.9-1.1 1.1-2.9 1.6-5.1 1.6-2.3 0-4.1-.9-5.4-2.6-1.3-1.8-2-4.1-2-7.1v-3.1c0-3.1.7-5.5 2.1-7.2z"/><path class="st0" d="M270.4 50.9c-2.2 0-4-.6-5.4-1.9-1.5-1.3-2.2-3-2.2-5 0-2.3 1-4.3 2.9-5.6 1.8-1.3 4.3-1.9 7.3-1.9h2.3v-.7c0-.9-.2-1.6-.8-2.1-.5-.5-1.4-.8-2.6-.8-1.1 0-2 .3-2.7.8-.8.6-.9 1.1-.9 1.5v1.5h-5.1v-1.5c0-2 .9-3.7 2.7-5.1 1.7-1.3 3.7-2 6.1-2 2.5 0 4.5.7 6 2 1.6 1.3 2.4 3.2 2.4 5.5v9c0 2 .3 3 .5 3.5l.1.3v2h-4.8s-.4-1.1-.4-1.2c-.4.2-.7.4-1.1.6-1.4.7-2.8 1.1-4.3 1.1zm2.7-9.8c-1.8 0-3.2.3-4.1.9-.7.5-1.1 1-1.1 1.8 0 .6.2 1.1.7 1.5.5.5 1.2.7 2.1.7 1.1 0 2.1-.3 3-.8.8-.5 1.3-1.1 1.7-1.8v-2.3h-2.3z"/><path class="st1" d="M279 35.7c0-1.9-.7-3.4-1.9-4.4-1.2-1.1-2.9-1.6-5-1.6s-3.8.6-5.2 1.7c-1.4 1.1-2.1 2.4-2.1 3.9h2.1c0-1.1.5-2 1.4-2.7 1-.8 2.2-1.1 3.6-1.1 1.6 0 2.8.4 3.7 1.2.8.8 1.3 1.8 1.3 3.2v2.2H273c-2.8 0-4.9.5-6.4 1.6s-2.3 2.5-2.3 4.4c0 1.6.6 2.8 1.7 3.9 1.1 1 2.6 1.5 4.4 1.5 1.3 0 2.5-.3 3.6-.8s2.1-1.3 2.8-2.2c.1 1.2.2 2.1.4 2.7h2.2V49c-.4-.9-.6-2.3-.6-4.1v-9.2zm-2.1 8c-.5 1.1-1.3 2-2.4 2.7-1.1.7-2.4 1-3.8 1-1.3 0-2.3-.4-3.1-1.1-.8-.7-1.2-1.6-1.2-2.7 0-1.3.6-2.3 1.8-3.1 1.2-.7 2.8-1.1 4.9-1.2h3.8v4.4z"/><path class="st0" d="M321.3 28.5h5.1v22h-5.1z"/><path class="st1" d="M322.8 49h2.1V30h-2.1z"/><path class="st0" d="M338 50.9c-1.9 0-3.6-.5-5.2-1.4-1.5-.9-2.8-2.3-3.6-3.9-.8-1.6-1.3-3.5-1.3-5.5v-.8c0-2 .4-3.9 1.2-5.6.8-1.7 2-3.1 3.5-4.1 1.5-1 3.2-1.5 4.9-1.5 2.8 0 5 1 6.6 2.9 1.6 1.8 2.4 4.4 2.4 7.4v2.7H333c.2 1.3.6 2.4 1.4 3.3.9 1.1 2.1 1.6 3.5 1.6.9 0 1.7-.2 2.3-.5.6-.3 1.3-.8 1.8-1.5l.9-1.2 3.6 2.8-.8 1.2c-1.6 2.7-4.3 4.1-7.7 4.1zm3.4-14.6c-.2-.9-.5-1.6-1.1-2.2-.7-.8-1.6-1.2-2.7-1.2-1.2 0-2.1.4-2.9 1.3-.5.6-.9 1.3-1.2 2.2h7.9z"/><path class="st1" d="M337.6 29.6c-1.5 0-2.8.4-4.1 1.3-1.3.8-2.3 2-3 3.5-.7 1.5-1.1 3.1-1.1 4.9v.7c0 1.8.4 3.4 1.1 4.8.7 1.4 1.7 2.5 3 3.3 1.3.8 2.8 1.2 4.4 1.2 2.9 0 5.2-1.1 6.7-3.4l-1.3-1c-.7.9-1.5 1.6-2.3 2-.9.4-1.9.6-3 .6-1.9 0-3.4-.7-4.7-2.2-1.2-1.4-1.9-3.2-1.9-5.4v-.4H345v-1.2c0-2.7-.7-4.9-2-6.5-1.3-1.4-3.1-2.2-5.4-2.2zm5.4 8.2h-11.4c.2-2 .9-3.5 2-4.7 1.1-1.2 2.4-1.7 4-1.7s2.9.6 3.9 1.7 1.5 2.6 1.6 4.5v.2z"/><g transform="translate(0 1)"><linearGradient id="SVGID_1_" gradientUnits="userSpaceOnUse" x1="39" y1="308.119" x2="39" y2="307.119" gradientTransform="matrix(72 0 0 -42 -2769 12963)"><stop offset="0" stop-color="#a7da3e"/><stop offset="1" stop-color="#7ed321"/></linearGradient><path d="M8 22h62c2.8 0 5 2.2 5 5v32c0 2.8-2.2 5-5 5H8c-2.8 0-5-2.2-5-5V27c0-2.8 2.2-5 5-5z" fill-rule="evenodd" clip-rule="evenodd" fill="url(#SVGID_1_)"/><circle class="st3" cx="39" cy="43" r="12"/><linearGradient id="SVGID_00000079446329657931875550000014038509167535190430_" gradientUnits="userSpaceOnUse" x1="39" y1="308.119" x2="39" y2="307.119" gradientTransform="matrix(72 0 0 -42 -2751 12943)"><stop offset="0" stop-color="#699b0a"/><stop offset="1" stop-color="#417505"/></linearGradient><path d="M26 2h62c2.8 0 5 2.2 5 5v32c0 2.8-2.2 5-5 5H26c-2.8 0-5-2.2-5-5V7c0-2.8 2.2-5 5-5z" fill-rule="evenodd" clip-rule="evenodd" fill="url(#SVGID_00000079446329657931875550000014038509167535190430_)"/><circle class="st3" cx="57" cy="23" r="12"/></g><path class="st1" d="m158.7 32.2-.1-2.3h-4.8v19h5.1V36.6c.6-1.3 1.9-2 3.8-2 .5 0 1.1 0 1.8.1l.1-4.9c-.5-.2-1-.2-1.6-.2-1.9 0-3.3.9-4.3 2.6zM181.7 36.4c0-2.1-.7-3.8-2.1-5-1.4-1.2-3.2-1.8-5.6-1.8-1.5 0-2.9.3-4.2.8-1.2.5-2.2 1.3-2.9 2.2-.7.9-1 2-1 3.1h5.1c0-.7.2-1.3.7-1.7.5-.4 1.2-.6 2-.6 1 0 1.7.3 2.1.8.5.5.7 1.2.7 2.1v1.1h-2.3c-2.8 0-5 .6-6.5 1.6-1.5 1.1-2.2 2.6-2.2 4.6 0 1.6.6 3 1.8 4.1 1.2 1.1 2.8 1.6 4.6 1.6 2 0 3.6-.7 4.8-2.1.1.7.3 1.2.5 1.7h5.1v-.3c-.5-.9-.7-2.3-.8-4.1v-8.1zm-5 7.2c-.3.6-.8 1-1.4 1.3-.6.3-1.3.5-2.1.5s-1.4-.2-1.8-.6c-.4-.4-.7-.9-.7-1.6v-.3c.2-1.8 1.5-2.6 4.1-2.6h1.9v3.3zM149.8 36.4c0-2.1-.7-3.8-2.1-5-1.4-1.2-3.2-1.8-5.6-1.8-1.5 0-2.9.3-4.2.8-1.2.5-2.2 1.3-2.9 2.2s-1 2-1 3.1h5.1c0-.7.2-1.3.7-1.7.5-.4 1.2-.6 2-.6 1 0 1.7.3 2.1.8.5.5.7 1.2.7 2.1v1.1h-2.3c-2.8 0-5 .6-6.5 1.6-1.5 1.1-2.2 2.6-2.2 4.6 0 1.6.6 3 1.8 4.1 1.2 1.1 2.8 1.6 4.6 1.6 2 0 3.6-.7 4.8-2.1.1.7.3 1.2.5 1.7h5.1v-.3c-.5-.9-.7-2.3-.8-4.1v-8.1zm-5.1 7.2c-.3.6-.8 1-1.4 1.3-.6.3-1.3.5-2.1.5s-1.4-.2-1.8-.6c-.4-.4-.7-.9-.7-1.6v-.3c.2-1.8 1.5-2.6 4.1-2.6h1.9v3.3zM120.6 44.8V23.4h-5.3V49h16.5v-4.2h-11.2zM192.5 42.8 189 30h-5.3l6.4 19h4.8l6.4-19H196zM223.1 22h5.1v27h-5.1zM211.5 29.6c-1.7 0-3.3.4-4.6 1.2-1.4.8-2.4 2-3.1 3.5-.7 1.5-1.1 3.2-1.1 5.1v.5c0 2.8.9 5.1 2.6 6.8 1.8 1.7 4 2.6 6.8 2.6 1.6 0 3-.3 4.3-.9 1.3-.6 2.3-1.4 3.1-2.5l-2.5-2.8c-1.1 1.4-2.6 2.1-4.6 2.1-1.3 0-2.3-.4-3.1-1.1-.8-.8-1.3-1.7-1.5-3h12.1V39c0-3-.7-5.3-2.2-7s-3.6-2.4-6.2-2.4zm3.4 8.1h-7.1c.2-1.3.6-2.2 1.2-2.9.6-.7 1.4-1 2.5-1s1.9.3 2.5.9c.6.6.9 1.5.9 2.6v.4z"/></svg>