<svg xmlns="http://www.w3.org/2000/svg" width="360" height="64" viewBox="0 0 360 64">
    <style>
        .letters { fill: #2E2E2E; }
        @media (prefers-color-scheme: dark) {
            .letters { fill: #ffffff; }
        }
    </style>
    <defs><linearGradient id="a" x1="50%" x2="50%" y1="0%" y2="100%"><stop stop-color="#A7DA3E" offset="0%"/><stop stop-color="#7ED321" offset="100%"/></linearGradient><linearGradient id="b" x1="50%" x2="50%" y1="0%" y2="100%"><stop stop-color="#699B0A" offset="0%"/><stop stop-color="#417505" offset="100%"/></linearGradient></defs><g fill="none" fill-rule="evenodd"><path class="letters" d="M117.56 42.764h11.196V47h-16.47V21.406h5.273v21.358zM142.466 47c-.235-.457-.404-1.025-.51-1.705-1.23 1.37-2.83 2.057-4.8 2.057-1.862 0-3.406-.54-4.63-1.618-1.225-1.078-1.838-2.437-1.838-4.078 0-2.015.747-3.562 2.24-4.64 1.495-1.08 3.654-1.623 6.478-1.635h2.338v-1.09c0-.878-.225-1.58-.677-2.108-.452-.528-1.164-.79-2.136-.79-.856 0-1.527.204-2.013.614-.485.41-.73.973-.73 1.687h-5.08c0-1.1.34-2.12 1.02-3.058.68-.938 1.64-1.673 2.884-2.206 1.242-.534 2.636-.8 4.183-.8 2.344 0 4.204.588 5.58 1.766 1.378 1.177 2.067 2.833 2.067 4.965v8.245c.01 1.805.263 3.17.756 4.096v.3h-5.133zm-4.2-3.533c.75 0 1.44-.167 2.073-.5.633-.335 1.1-.783 1.406-1.346v-3.268h-1.898c-2.543 0-3.897.878-4.06 2.636l-.018.3c0 .632.222 1.153.667 1.564.446.41 1.055.615 1.83.615zm23.167-10.723c-.692-.094-1.3-.14-1.83-.14-1.92 0-3.18.65-3.778 1.95V47h-5.08V27.98h4.8l.14 2.268c1.02-1.746 2.43-2.62 4.236-2.62.562 0 1.09.077 1.582.23l-.07 4.886zM174.37 47c-.233-.457-.403-1.025-.51-1.705-1.23 1.37-2.83 2.057-4.798 2.057-1.863 0-3.407-.54-4.63-1.618-1.226-1.078-1.838-2.437-1.838-4.078 0-2.015.747-3.562 2.24-4.64 1.495-1.08 3.654-1.623 6.478-1.635h2.338v-1.09c0-.878-.225-1.58-.676-2.108-.452-.528-1.163-.79-2.136-.79-.856 0-1.526.204-2.013.614-.486.41-.73.973-.73 1.687h-5.08c0-1.1.34-2.12 1.02-3.058.68-.938 1.64-1.673 2.883-2.206 1.242-.534 2.637-.8 4.184-.8 2.343 0 4.204.588 5.58 1.766 1.378 1.177 2.066 2.833 2.066 4.965v8.245c.012 1.805.264 3.17.756 4.096v.3h-5.133zm-4.2-3.533c.75 0 1.44-.167 2.074-.5.633-.335 1.102-.783 1.406-1.346v-3.268h-1.898c-2.543 0-3.897.878-4.06 2.636l-.018.3c0 .632.222 1.153.668 1.564.445.41 1.054.615 1.828.615zm19.336-2.672l3.533-12.815h5.308L191.932 47h-4.852l-6.416-19.02h5.31l3.532 12.815zm19.6 6.557c-2.79 0-5.06-.856-6.812-2.567-1.752-1.71-2.628-3.99-2.628-6.838v-.492c0-1.91.37-3.618 1.107-5.124.74-1.505 1.785-2.665 3.138-3.48 1.355-.814 2.9-1.22 4.633-1.22 2.602 0 4.65.82 6.144 2.46 1.494 1.64 2.24 3.967 2.24 6.978v2.075h-12.11c.163 1.242.66 2.238 1.485 2.988.826.75 1.872 1.126 3.137 1.126 1.956 0 3.486-.71 4.587-2.127l2.496 2.794c-.76 1.078-1.793 1.92-3.093 2.522-1.3.604-2.742.906-4.325.906zm-.58-15.61c-1.008 0-1.826.34-2.453 1.02-.627.68-1.028 1.652-1.204 2.918h7.066v-.405c-.024-1.125-.33-1.995-.915-2.61-.584-.615-1.416-.923-2.495-.923zM225.17 47h-5.098V20h5.098v27zm32.344-7.98c-.293 2.695-1.257 4.757-2.892 6.187-1.635 1.43-3.81 2.145-6.53 2.145-1.9 0-3.577-.475-5.036-1.424-1.46-.95-2.587-2.294-3.384-4.034-.797-1.74-1.2-3.73-1.213-5.968v-3.322c0-2.274.4-4.29 1.196-6.047.797-1.758 1.943-3.115 3.437-4.07 1.494-.955 3.214-1.432 5.16-1.432 2.74 0 4.906.74 6.494 2.223 1.588 1.483 2.51 3.53 2.77 6.144h-2.18c-.54-4.348-2.9-6.522-7.085-6.522-2.32 0-4.17.868-5.546 2.602-1.377 1.734-2.065 4.13-2.065 7.19v3.128c0 2.953.672 5.31 2.013 7.067 1.342 1.758 3.156 2.636 5.44 2.636 2.262 0 3.968-.542 5.116-1.626 1.147-1.084 1.856-2.71 2.126-4.877h2.18zm16.77 7.98c-.212-.598-.347-1.482-.405-2.654-.737.96-1.678 1.702-2.82 2.223-1.143.52-2.353.782-3.63.782-1.828 0-3.308-.51-4.44-1.53-1.13-1.02-1.695-2.308-1.695-3.867 0-1.85.77-3.316 2.31-4.394 1.542-1.078 3.69-1.617 6.444-1.617h3.813V33.78c0-1.358-.42-2.427-1.257-3.207-.837-.78-2.06-1.17-3.665-1.17-1.463 0-2.676.376-3.637 1.126-.96.75-1.442 1.652-1.442 2.706l-2.108-.017c0-1.513.703-2.823 2.11-3.93 1.406-1.107 3.134-1.66 5.185-1.66 2.12 0 3.794.53 5.018 1.59 1.225 1.06 1.855 2.54 1.89 4.438v9c0 1.84.193 3.217.58 4.13V47h-2.25zm-6.61-1.512c1.406 0 2.663-.34 3.77-1.02 1.108-.68 1.913-1.587 2.417-2.724V37.56h-3.76c-2.1.024-3.74.408-4.923 1.152-1.184.744-1.776 1.767-1.776 3.067 0 1.066.396 1.95 1.187 2.654.792.703 1.82 1.054 3.086 1.054zm25.277-3.322c0-1.043-.42-1.88-1.257-2.514-.838-.632-2.1-1.128-3.788-1.485-1.687-.357-2.997-.768-3.93-1.23-.93-.463-1.622-1.03-2.073-1.697-.45-.668-.676-1.476-.676-2.426 0-1.5.625-2.74 1.88-3.717 1.253-.98 2.86-1.468 4.816-1.468 2.12 0 3.823.523 5.106 1.572 1.283 1.05 1.925 2.417 1.925 4.105h-2.11c0-1.114-.465-2.04-1.397-2.778-.93-.74-2.106-1.108-3.524-1.108-1.383 0-2.493.307-3.33.923-.84.615-1.258 1.415-1.258 2.4 0 .948.35 1.684 1.046 2.205.697.522 1.97 1 3.814 1.433 1.846.433 3.23.896 4.15 1.388.92.494 1.6 1.085 2.047 1.777.445.69.668 1.53.668 2.514 0 1.606-.648 2.89-1.943 3.85s-2.985 1.442-5.07 1.442c-2.216 0-4.012-.537-5.39-1.61-1.376-1.07-2.064-2.428-2.064-4.068h2.11c.08 1.23.6 2.188 1.555 2.874.956.685 2.22 1.028 3.79 1.028 1.464 0 2.647-.322 3.55-.967.902-.645 1.353-1.46 1.353-2.444zm8.93-10.97c.69-1.135 1.576-2.014 2.654-2.635 1.078-.62 2.256-.93 3.533-.93 2.04 0 3.557.573 4.553 1.722.996 1.148 1.5 2.87 1.512 5.168V47h-2.092V34.502c-.012-1.7-.372-2.965-1.08-3.797-.71-.832-1.844-1.248-3.402-1.248-1.3 0-2.452.407-3.454 1.222-1.002.813-1.743 1.912-2.223 3.295V47h-2.092V20h2.093v11.197zM321.903 47h-2.108V27.98h2.11V47zm-2.477-24.52c0-.4.13-.737.387-1.012.257-.276.61-.413 1.054-.413.446 0 .8.137 1.064.413.264.275.396.612.396 1.01 0 .4-.132.733-.395 1.002-.263.27-.617.405-1.063.405-.445 0-.797-.135-1.055-.405-.257-.27-.386-.603-.386-1zm15.556 24.872c-1.617 0-3.08-.4-4.385-1.196-1.307-.797-2.324-1.907-3.05-3.33-.727-1.425-1.09-3.02-1.09-4.79v-.757c0-1.83.355-3.475 1.064-4.94.71-1.465 1.697-2.616 2.962-3.454 1.266-.838 2.637-1.257 4.114-1.257 2.308 0 4.14.787 5.493 2.363 1.352 1.576 2.03 3.73 2.03 6.46v1.178h-13.57v.405c0 2.156.617 3.952 1.853 5.388 1.237 1.435 2.792 2.153 4.667 2.153 1.125 0 2.118-.205 2.98-.615.86-.41 1.643-1.065 2.346-1.968l1.32 1.002c-1.548 2.238-3.792 3.358-6.734 3.358zm-.386-17.93c-1.582 0-2.915.58-4 1.74-1.083 1.16-1.742 2.72-1.977 4.676h11.407v-.23c-.058-1.827-.58-3.315-1.564-4.463-.984-1.15-2.274-1.723-3.867-1.723zm20.408.35c-.445-.08-.92-.122-1.424-.122-1.312 0-2.423.367-3.33 1.1-.91.73-1.557 1.795-1.943 3.19V47h-2.092V27.98h2.056l.037 3.024c1.113-2.25 2.9-3.375 5.36-3.375.587 0 1.05.075 1.39.227l-.053 1.916z"/><g transform="translate(0 1)"><rect width="72" height="42" y="20" fill="url(#a)" rx="5"/><circle cx="36" cy="41" r="12" fill="#FFF"/><rect width="72" height="42" x="18" fill="url(#b)" rx="5"/><circle cx="54" cy="21" r="12" fill="#FFF"/></g></g>
</svg>
